<?xml version="1.0" ?><svg viewBox="0 0 60 60" xmlns="http://www.w3.org/2000/svg"><title/><g id="colour"><path d="M32,45.9999c1.43008,4.1384,6.15467,7.10371,10.66056,6.99242a9.89916,9.89916,0,0,0,3.67137-.65871A4.54513,4.54513,0,0,1,48.1178,52L58,51.9999l-6-4,7-1-6-3,6-2-6-2,6-5-8,1,4-6L48.98172,33.009a5.17025,5.17025,0,0,1-3.6302.32587A13.35436,13.35436,0,0,0,42,32.9999a10.60682,10.60682,0,0,0-10,7H28a10.60682,10.60682,0,0,0-10-7,13.35436,13.35436,0,0,0-3.35153.335,5.17025,5.17025,0,0,1-3.6302-.32587L5,29.9999l4,6-8-1,6,5-6,2,6,2-6,3,7,1-6,4L11.8822,52a4.54513,4.54513,0,0,1,1.78587.33361,9.89916,9.89916,0,0,0,3.67137.65871c4.50589.11128,9.23048-2.854,10.66056-6.99242Z" fill="#ce3272"/><path d="M14.6485,35.335A13.35664,13.35664,0,0,1,18,35c4.47961,0,8,3,10,4.99988h4C34,38,37.52039,35,42,35a13.35664,13.35664,0,0,1,3.3515.335,5.1701,5.1701,0,0,0,3.63025-.32587l4.01813-2.009L55,29.99988,48.98175,33.009a5.17043,5.17043,0,0,1-3.63025.32587A13.35377,13.35377,0,0,0,42,32.99988a10.60686,10.60686,0,0,0-10,7H28a10.60686,10.60686,0,0,0-10-7,13.35377,13.35377,0,0,0-3.3515.335,5.17043,5.17043,0,0,1-3.63025-.32587L5,29.99988l2.00012,3.00018,4.01813,2.009A5.1701,5.1701,0,0,0,14.6485,35.335Z" fill="#d34a89"/><circle cx="42" cy="42.9999" fill="#7a1fa1" r="6"/><circle cx="18" cy="42.9999" fill="#0288d0" r="6"/><path d="M43.673,37.241A5.99348,5.99348,0,0,1,37.327,46.75885,5.99787,5.99787,0,1,0,43.673,37.241Z" fill="#5f1b87"/><path d="M19.673,37.241A5.99348,5.99348,0,0,1,13.327,46.75885,5.99787,5.99787,0,1,0,19.673,37.241Z" fill="#0579ad"/></g><g data-name="Layer 1" id="Layer_1"><path d="M42,36.00036a7,7,0,1,0,7,7A7.00849,7.00849,0,0,0,42,36.00036Zm0,12a5,5,0,1,1,5-5A5.00589,5.00589,0,0,1,42,48.00036Z"/><path d="M18,36.00036a7,7,0,1,0,7,7A7.00849,7.00849,0,0,0,18,36.00036Zm0,12a5,5,0,1,1,5-5A5.00589,5.00589,0,0,1,18,48.00036Z"/><path d="M54.41406,53.00036H58a1,1,0,0,0,.55469-1.832l-3.82227-2.54785,4.40918-.62988a1.00021,1.00021,0,0,0,.30566-1.88477L55.60645,44.1859l3.71-1.2373a.99947.99947,0,0,0,0-1.89648L55.01953,39.6195l4.62109-3.85059a1.00038,1.00038,0,0,0-.76465-1.76074l-5.832.72852L55.832,30.555a.99991.99991,0,0,0-1.2793-1.44922l-6.01855,3.00879a4.17754,4.17754,0,0,1-2.93066.25293A14.35769,14.35769,0,0,0,42,32.00036a11.69687,11.69687,0,0,0-10.7002,7H28.7002a11.69687,11.69687,0,0,0-10.7002-7,14.35769,14.35769,0,0,0-3.60352.36719,4.177,4.177,0,0,1-2.93066-.25293L5.44727,29.10582A.99991.99991,0,0,0,4.168,30.555l2.78809,4.18164-5.832-.72852a1.00038,1.00038,0,0,0-.76465,1.76074L4.98047,39.6195.68359,41.05211a.99947.99947,0,0,0,0,1.89648l3.71,1.2373L.55274,46.10582A1.00021,1.00021,0,0,0,.8584,47.99059l4.40918.62988L1.44531,51.16832A1,1,0,0,0,2,53.00036H5.58594l-5.293,5.293A.99989.99989,0,1,0,1.707,59.70739l6.707-6.707h3.46777a3.53718,3.53718,0,0,1,1.39453.25391,10.68119,10.68119,0,0,0,4.03906.73828,12.379,12.379,0,0,0,11.36816-6.99219h2.63281A12.35333,12.35333,0,0,0,42.4043,53.99547c.09277,0,.18652-.001.28027-.00293a10.67924,10.67924,0,0,0,4.041-.73926,3.5383,3.5383,0,0,1,1.39258-.25293h3.46777l6.707,6.707A.99989.99989,0,0,0,59.707,58.29332Zm-8.47363-1.58594a8.82137,8.82137,0,0,1-3.30469.57813c-4.20312.09473-8.43164-2.67187-9.69043-6.31836A1.0002,1.0002,0,0,0,32,45.00036H28a1.0002,1.0002,0,0,0-.94531.67383c-1.25977,3.64551-5.53516,6.41895-9.69043,6.31836a8.8241,8.8241,0,0,1-3.30273-.57715,5.51436,5.51436,0,0,0-2.17969-.415H5.30274l3.252-2.168a1,1,0,0,0-.41309-1.82227l-3.83105-.54687,3.13672-1.56836a1,1,0,0,0-.13086-1.84277l-3.1543-1.05176,3.1543-1.05176a1.00037,1.00037,0,0,0,.32422-1.7168L4.26074,36.41539l4.61523.57715A1.00007,1.00007,0,0,0,9.832,35.44567L7.9209,32.57848l2.65039,1.3252a6.17737,6.17737,0,0,0,4.3291.39941A12.53984,12.53984,0,0,1,18,34.00036,9.57174,9.57174,0,0,1,27.04785,40.305.99951.99951,0,0,0,28,41.00036h4a.99951.99951,0,0,0,.95215-.69531A9.57174,9.57174,0,0,1,42,34.00036a12.53984,12.53984,0,0,1,3.09961.30273,6.17737,6.17737,0,0,0,4.3291-.39941l2.65039-1.3252L50.168,35.44567a1.00007,1.00007,0,0,0,.95605,1.54688l4.61523-.57715L52.35938,39.2318a1.00037,1.00037,0,0,0,.32422,1.7168l3.1543,1.05176-3.1543,1.05176a1,1,0,0,0-.13086,1.84277l3.13672,1.56836-3.83105.54688a1,1,0,0,0-.41309,1.82227l3.252,2.168h-6.5791A5.51493,5.51493,0,0,0,45.94043,51.41442Z"/></g></svg>