<svg xmlns="http://www.w3.org/2000/svg" xmlns:xlink="http://www.w3.org/1999/xlink" width="559" zoomAndPan="magnify" viewBox="0 0 419.25 297.75" height="396" preserveAspectRatio="xMidYMid meet" version="1.0"><defs><clipPath id="433535d4a9"><path d="M 6 120 L 116 120 L 116 177 L 6 177 Z M 6 120 " clip-rule="nonzero"/></clipPath><clipPath id="83e061a549"><path d="M 217.660156 -61.226562 L 419.386719 157.050781 L 201.109375 358.777344 L -0.617188 140.5 Z M 217.660156 -61.226562 " clip-rule="nonzero"/></clipPath><clipPath id="ce9db94c19"><path d="M 217.660156 -61.226562 L 419.386719 157.050781 L 201.109375 358.777344 L -0.617188 140.5 Z M 217.660156 -61.226562 " clip-rule="nonzero"/></clipPath><clipPath id="61f3c21515"><path d="M 6 121 L 119 121 L 119 149 L 6 149 Z M 6 121 " clip-rule="nonzero"/></clipPath><clipPath id="1925070a04"><path d="M 217.660156 -61.226562 L 419.386719 157.050781 L 201.109375 358.777344 L -0.617188 140.5 Z M 217.660156 -61.226562 " clip-rule="nonzero"/></clipPath><clipPath id="62e1ef146e"><path d="M 217.660156 -61.226562 L 419.386719 157.050781 L 201.109375 358.777344 L -0.617188 140.5 Z M 217.660156 -61.226562 " clip-rule="nonzero"/></clipPath><clipPath id="27533a2ae8"><path d="M 6 137 L 114 137 L 114 177 L 6 177 Z M 6 137 " clip-rule="nonzero"/></clipPath><clipPath id="a73f4e9137"><path d="M 217.660156 -61.226562 L 419.386719 157.050781 L 201.109375 358.777344 L -0.617188 140.5 Z M 217.660156 -61.226562 " clip-rule="nonzero"/></clipPath><clipPath id="175cfc7045"><path d="M 217.660156 -61.226562 L 419.386719 157.050781 L 201.109375 358.777344 L -0.617188 140.5 Z M 217.660156 -61.226562 " clip-rule="nonzero"/></clipPath><clipPath id="3eddbd291f"><path d="M 113 132 L 137 132 L 137 172 L 113 172 Z M 113 132 " clip-rule="nonzero"/></clipPath><clipPath id="deb69ec85b"><path d="M 217.660156 -61.226562 L 419.386719 157.050781 L 201.109375 358.777344 L -0.617188 140.5 Z M 217.660156 -61.226562 " clip-rule="nonzero"/></clipPath><clipPath id="3751610607"><path d="M 217.660156 -61.226562 L 419.386719 157.050781 L 201.109375 358.777344 L -0.617188 140.5 Z M 217.660156 -61.226562 " clip-rule="nonzero"/></clipPath><clipPath id="ff4b8f7103"><path d="M 135 140 L 168 140 L 168 164 L 135 164 Z M 135 140 " clip-rule="nonzero"/></clipPath><clipPath id="2735cbc9ca"><path d="M 217.660156 -61.226562 L 419.386719 157.050781 L 201.109375 358.777344 L -0.617188 140.5 Z M 217.660156 -61.226562 " clip-rule="nonzero"/></clipPath><clipPath id="4a34c6fdaa"><path d="M 217.660156 -61.226562 L 419.386719 157.050781 L 201.109375 358.777344 L -0.617188 140.5 Z M 217.660156 -61.226562 " clip-rule="nonzero"/></clipPath><clipPath id="302851fa9b"><path d="M 166 129 L 413 129 L 413 174 L 166 174 Z M 166 129 " clip-rule="nonzero"/></clipPath><clipPath id="d9dbe97e68"><path d="M 217.660156 -61.226562 L 419.386719 157.050781 L 201.109375 358.777344 L -0.617188 140.5 Z M 217.660156 -61.226562 " clip-rule="nonzero"/></clipPath><clipPath id="bf74486cc2"><path d="M 217.660156 -61.226562 L 419.386719 157.050781 L 201.109375 358.777344 L -0.617188 140.5 Z M 217.660156 -61.226562 " clip-rule="nonzero"/></clipPath><clipPath id="29979cca9c"><path d="M 1 115 L 418 115 L 418 233 L 1 233 Z M 1 115 " clip-rule="nonzero"/></clipPath><clipPath id="2400829d7b"><path d="M 217.660156 -61.226562 L 419.386719 157.050781 L 201.109375 358.777344 L -0.617188 140.5 Z M 217.660156 -61.226562 " clip-rule="nonzero"/></clipPath><clipPath id="16b6111b38"><path d="M 217.660156 -61.226562 L 419.386719 157.050781 L 201.109375 358.777344 L -0.617188 140.5 Z M 217.660156 -61.226562 " clip-rule="nonzero"/></clipPath></defs><g clip-path="url(#433535d4a9)"><g clip-path="url(#83e061a549)"><g clip-path="url(#ce9db94c19)"><path fill="#49322e" d="M 113.886719 171.28125 C 77.511719 181.96875 40.140625 177.132812 6.464844 140.695312 C 34.246094 115.019531 72.335938 115.082031 115.40625 132.722656 Z M 113.886719 171.28125 " fill-opacity="1" fill-rule="nonzero"/></g></g></g><g clip-path="url(#61f3c21515)"><g clip-path="url(#1925070a04)"><g clip-path="url(#62e1ef146e)"><path fill="#664a44" d="M 114.785156 148.46875 C 80.351562 133.09375 52.636719 124.996094 12.847656 141.539062 C 10.917969 139.257812 8.207031 143.253906 6.492188 140.671875 C 47.832031 113.234375 85.289062 117.378906 118.097656 136.375 Z M 114.785156 148.46875 " fill-opacity="1" fill-rule="nonzero"/></g></g></g><g clip-path="url(#27533a2ae8)"><g clip-path="url(#a73f4e9137)"><g clip-path="url(#175cfc7045)"><path fill="#49322e" d="M 113.527344 158.125 C 79.804688 168.035156 47.621094 163.34375 10.101562 137.335938 C 8.773438 138.328125 7.558594 139.449219 6.464844 140.695312 C 40.140625 177.132812 77.511719 181.96875 113.886719 171.28125 Z M 113.527344 158.125 " fill-opacity="1" fill-rule="nonzero"/></g></g></g><g clip-path="url(#3eddbd291f)"><g clip-path="url(#deb69ec85b)"><g clip-path="url(#3751610607)"><path fill="#49322e" d="M 135.226562 163.289062 C 128.300781 166.453125 121.1875 169.117188 113.886719 171.28125 L 115.40625 132.722656 C 122.128906 135.476562 129.082031 138.695312 136.054688 142.296875 Z M 135.226562 163.289062 " fill-opacity="1" fill-rule="nonzero"/></g></g></g><g clip-path="url(#ff4b8f7103)"><g clip-path="url(#2735cbc9ca)"><g clip-path="url(#4a34c6fdaa)"><path fill="#f57b02" d="M 166.851562 161.03125 L 135.226562 163.289062 L 136.054688 142.296875 L 167.679688 140.039062 Z M 166.851562 161.03125 " fill-opacity="1" fill-rule="nonzero"/></g></g></g><g clip-path="url(#302851fa9b)"><g clip-path="url(#d9dbe97e68)"><g clip-path="url(#bf74486cc2)"><path fill="#49322e" d="M 412.308594 156.6875 L 394.125 173.492188 L 363.992188 158.324219 C 358.871094 155.75 353.449219 154.359375 347.722656 154.144531 L 261.585938 150.75 C 259.445312 150.664062 257.34375 150.917969 255.285156 151.515625 L 228.980469 159.171875 C 227.296875 159.628906 225.582031 159.886719 223.835938 159.949219 L 166.851562 161.03125 L 167.679688 140.039062 L 217.734375 138.683594 C 219.441406 138.652344 221.109375 138.394531 222.742188 137.898438 L 249.113281 130.25 C 251.171875 129.652344 253.273438 129.394531 255.417969 129.480469 L 350.160156 133.214844 C 371.152344 134.042969 398.867188 142.140625 412.308594 156.6875 Z M 412.308594 156.6875 " fill-opacity="1" fill-rule="nonzero"/></g></g></g><g clip-path="url(#29979cca9c)"><g clip-path="url(#2400829d7b)"><g clip-path="url(#16b6111b38)"><path fill="#000000" d="M 415.945312 153.328125 C 401.132812 137.300781 371.5625 129.105469 350.355469 128.269531 L 255.601562 124.535156 C 252.925781 124.429688 250.300781 124.75 247.730469 125.492188 L 221.355469 133.148438 C 220.136719 133.5 218.890625 133.695312 217.621094 133.730469 L 167.324219 135.101562 L 137.078125 137.261719 C 79.691406 108.003906 34.617188 107.933594 3.101562 137.058594 C 2.863281 137.28125 2.648438 137.523438 2.457031 137.785156 C 2.265625 138.050781 2.101562 138.328125 1.964844 138.625 C 1.832031 138.917969 1.722656 139.222656 1.648438 139.539062 C 1.574219 139.855469 1.527344 140.175781 1.515625 140.503906 C 1.503906 140.828125 1.523438 141.148438 1.574219 141.472656 C 1.625 141.792969 1.703125 142.105469 1.816406 142.410156 C 1.929688 142.714844 2.070312 143.007812 2.242188 143.285156 C 2.410156 143.5625 2.605469 143.820312 2.828125 144.058594 C 39.183594 183.398438 84.136719 191.507812 136.453125 168.167969 L 147.832031 167.351562 L 148.414062 185.097656 L 120.214844 217.3125 L 108.585938 216.855469 C 108.257812 216.839844 107.933594 216.859375 107.613281 216.90625 C 107.289062 216.957031 106.976562 217.039062 106.667969 217.148438 C 106.363281 217.261719 106.070312 217.402344 105.789062 217.570312 C 105.511719 217.742188 105.253906 217.9375 105.011719 218.15625 C 104.773438 218.378906 104.554688 218.621094 104.363281 218.882812 C 104.171875 219.148438 104.007812 219.425781 103.867188 219.722656 C 103.730469 220.019531 103.625 220.324219 103.550781 220.640625 C 103.472656 220.960938 103.429688 221.28125 103.414062 221.605469 C 103.402344 221.933594 103.421875 222.257812 103.472656 222.578125 C 103.523438 222.902344 103.605469 223.214844 103.71875 223.523438 C 103.832031 223.828125 103.976562 224.121094 104.144531 224.398438 C 104.316406 224.675781 104.511719 224.933594 104.734375 225.171875 C 104.957031 225.410156 105.199219 225.625 105.464844 225.816406 C 105.730469 226.007812 106.011719 226.171875 106.308594 226.308594 C 106.605469 226.441406 106.910156 226.546875 107.230469 226.621094 C 107.546875 226.695312 107.867188 226.738281 108.195312 226.75 L 122.191406 227.300781 C 122.9375 227.332031 123.652344 227.199219 124.339844 226.902344 C 125.027344 226.609375 125.617188 226.179688 126.109375 225.617188 L 148.890625 199.59375 L 149.292969 211.902344 L 142.398438 224.433594 C 142.296875 224.617188 142.207031 224.804688 142.128906 225 C 142.054688 225.195312 141.988281 225.394531 141.9375 225.601562 C 141.886719 225.804688 141.847656 226.007812 141.820312 226.21875 C 141.796875 226.425781 141.785156 226.636719 141.785156 226.847656 C 141.785156 227.054688 141.800781 227.265625 141.828125 227.472656 C 141.855469 227.683594 141.898438 227.886719 141.953125 228.089844 C 142.003906 228.292969 142.074219 228.492188 142.152344 228.6875 C 142.230469 228.882812 142.324219 229.070312 142.425781 229.253906 C 142.53125 229.4375 142.644531 229.613281 142.769531 229.78125 C 142.894531 229.949219 143.03125 230.109375 143.175781 230.261719 C 143.324219 230.410156 143.480469 230.550781 143.640625 230.683594 C 143.804688 230.816406 143.976562 230.933594 144.15625 231.042969 C 144.335938 231.152344 144.523438 231.25 144.714844 231.335938 C 144.90625 231.421875 145.101562 231.496094 145.304688 231.558594 C 145.503906 231.617188 145.710938 231.667969 145.917969 231.699219 C 146.125 231.734375 146.332031 231.757812 146.542969 231.765625 L 167.535156 232.59375 C 167.859375 232.605469 168.179688 232.582031 168.5 232.53125 C 168.820312 232.480469 169.132812 232.398438 169.433594 232.285156 C 169.738281 232.171875 170.027344 232.027344 170.304688 231.859375 C 170.582031 231.6875 170.835938 231.492188 171.074219 231.273438 C 171.3125 231.050781 171.527344 230.8125 171.714844 230.546875 C 171.90625 230.285156 172.070312 230.007812 172.203125 229.710938 C 172.339844 229.417969 172.445312 229.113281 172.519531 228.796875 C 172.597656 228.484375 172.640625 228.164062 172.652344 227.839844 C 172.667969 227.515625 172.648438 227.195312 172.597656 226.875 C 172.546875 226.554688 172.464844 226.242188 172.355469 225.9375 C 172.242188 225.632812 172.101562 225.34375 171.933594 225.066406 C 171.765625 224.789062 171.570312 224.53125 171.351562 224.292969 C 171.128906 224.054688 170.890625 223.839844 170.628906 223.648438 C 170.367188 223.457031 170.089844 223.292969 169.796875 223.15625 C 169.5 223.019531 169.195312 222.914062 168.882812 222.835938 C 168.566406 222.757812 168.25 222.710938 167.925781 222.699219 L 154.9375 222.1875 L 158.625 215.484375 C 159.0625 214.691406 159.265625 213.84375 159.234375 212.9375 L 157.71875 166.644531 L 166.945312 165.984375 L 223.941406 164.878906 C 226.125 164.835938 228.265625 164.511719 230.363281 163.90625 L 256.660156 156.273438 C 258.203125 155.824219 259.777344 155.632812 261.382812 155.695312 L 347.5625 159.09375 C 352.5625 159.28125 357.300781 160.507812 361.769531 162.761719 L 391.898438 177.917969 C 392.347656 178.144531 392.824219 178.296875 393.320312 178.378906 C 393.816406 178.460938 394.316406 178.464844 394.816406 178.394531 C 395.316406 178.324219 395.792969 178.183594 396.246094 177.964844 C 396.703125 177.75 397.117188 177.472656 397.484375 177.128906 L 415.667969 160.324219 C 415.90625 160.105469 416.121094 159.863281 416.3125 159.601562 C 416.503906 159.335938 416.667969 159.058594 416.804688 158.761719 C 416.941406 158.46875 417.046875 158.160156 417.121094 157.84375 C 417.199219 157.527344 417.242188 157.207031 417.253906 156.882812 C 417.269531 156.558594 417.25 156.234375 417.199219 155.914062 C 417.148438 155.59375 417.066406 155.28125 416.953125 154.976562 C 416.839844 154.671875 416.699219 154.378906 416.53125 154.101562 C 416.359375 153.824219 416.164062 153.566406 415.945312 153.328125 Z M 130.402344 159.949219 C 126.585938 161.597656 122.820312 163.0625 119.113281 164.347656 L 120.066406 140.152344 C 123.648438 141.75 127.285156 143.472656 130.976562 145.320312 Z M 13.640625 141.035156 C 37.429688 121.832031 69.882812 120.226562 110.316406 136.0625 L 109.082031 167.457031 C 72.347656 177.230469 40.914062 168.527344 13.640625 141.035156 Z M 140.390625 157.960938 L 140.824219 146.921875 L 162.511719 145.371094 L 162.078125 156.410156 Z M 393.285156 167.527344 L 366.21875 153.914062 C 360.472656 151.015625 354.382812 149.441406 347.953125 149.199219 L 261.773438 145.800781 C 259.097656 145.695312 256.472656 146.015625 253.898438 146.761719 L 227.605469 154.394531 C 226.347656 154.757812 225.0625 154.953125 223.75 154.976562 L 172.003906 155.988281 L 172.441406 144.867188 L 217.890625 143.628906 C 220.007812 143.570312 222.082031 143.246094 224.117188 142.660156 L 250.488281 135.007812 C 252.03125 134.558594 253.609375 134.367188 255.214844 134.429688 L 349.964844 138.164062 C 368.046875 138.875 391.691406 145.390625 405.070312 156.632812 Z M 393.285156 167.527344 " fill-opacity="1" fill-rule="nonzero"/></g></g></g></svg>