<?xml version="1.0" ?><svg viewBox="0 0 60 60" xmlns="http://www.w3.org/2000/svg"><title/><g id="text"><text font-family="MyriadPro-Regular, Myriad Pro" font-size="9" transform="translate(12.06201 -49.60986)"><tspan letter-spacing="0.00798em"/><tspan x="5.88574" y="0"/><tspan letter-spacing="-0.00798em" x="10.22363" y="0"/><tspan x="13.09473" y="0"/><tspan letter-spacing="-0.007em" x="18.12549" y="0"/><tspan x="23.00342" y="0"/></text></g><g id="colour"><path d="M50,21a9,9,0,1,0,9,9A9.006,9.006,0,0,0,50,21Zm0,14.82353A5.82353,5.82353,0,1,1,55.82353,30,5.83382,5.83382,0,0,1,50,35.82353Z" fill="#616161"/><path d="M46.48334,38.28461a8.9944,8.9944,0,0,1,8.78333-15.56921,8.99488,8.99488,0,1,0-8.78333,15.56921Z" fill="#6a6b6b"/><path d="M10,17a9,9,0,1,0,9,9A9.006,9.006,0,0,0,10,17Zm0,14.82353A5.82353,5.82353,0,1,1,15.82353,26,5.83382,5.83382,0,0,1,10,31.82353Z" fill="#616161"/><path d="M6.48334,34.28461a8.9944,8.9944,0,0,1,8.78333-15.56921A8.99488,8.99488,0,1,0,6.48334,34.28461Z" fill="#6a6b6b"/><path d="M30,1a9,9,0,1,0,9,9A9.006,9.006,0,0,0,30,1Zm0,14.82353A5.82353,5.82353,0,1,1,35.82353,10,5.83382,5.83382,0,0,1,30,15.82353Z" fill="#616161"/><path d="M26.48334,18.28461A8.9944,8.9944,0,0,1,35.26666,2.71539a8.99488,8.99488,0,1,0-8.78333,15.56921Z" fill="#6a6b6b"/><path d="M13.51666,17.71539A8.9944,8.9944,0,0,1,4.73334,33.28461a8.99488,8.99488,0,1,0,8.78333-15.56921Z" fill="#4c4c4c"/><path d="M53.51666,21.71539a8.9944,8.9944,0,0,1-8.78333,15.56921,8.99488,8.99488,0,1,0,8.78333-15.56921Z" fill="#4c4c4c"/><path d="M33.51666,1.71539a8.9944,8.9944,0,0,1-8.78333,15.56921A8.99488,8.99488,0,1,0,33.51666,1.71539Z" fill="#4c4c4c"/></g><g data-name="Layer 1" id="Layer_1"><path d="M30,.00036a9.99969,9.99969,0,0,0-1,19.94928V59.00036a1,1,0,0,0,2,0V19.94964A9.99969,9.99969,0,0,0,30,.00036Zm0,18a8,8,0,1,1,8-8A8.00917,8.00917,0,0,1,30,18.00036Z"/><path d="M50,20.00036a9.99969,9.99969,0,0,0-1,19.94928V59.00036a1,1,0,1,0,2,0V39.94964a9.99969,9.99969,0,0,0-1-19.94928Zm0,18a8,8,0,1,1,8-8A8.00917,8.00917,0,0,1,50,38.00036Z"/><path d="M10,16.00036A9.99969,9.99969,0,0,0,9,35.94964V59.00036a1,1,0,1,0,2,0V35.94964a9.99969,9.99969,0,0,0-1-19.94928Zm0,18a8,8,0,1,1,8-8A8.00917,8.00917,0,0,1,10,34.00036Z"/><path d="M30,4.00036a6,6,0,1,0,6,6A6.00656,6.00656,0,0,0,30,4.00036Zm0,10a4,4,0,1,1,4-4A4.004,4.004,0,0,1,30,14.00036Z"/><path d="M50,24.00036a6,6,0,1,0,6,6A6.00656,6.00656,0,0,0,50,24.00036Zm0,10a4,4,0,1,1,4-4A4.004,4.004,0,0,1,50,34.00036Z"/><path d="M10,20.00036a6,6,0,1,0,6,6A6.00656,6.00656,0,0,0,10,20.00036Zm0,10a4,4,0,1,1,4-4A4.004,4.004,0,0,1,10,30.00036Z"/></g></svg>